<svg 
 xmlns="http://www.w3.org/2000/svg"
 xmlns:xlink="http://www.w3.org/1999/xlink"
 width="173px" height="45px">
<path fill-rule="evenodd"  fill="ffffff"
 d="M163.0,44.999 L163.0,42.999 L171.0,42.999 L171.0,34.999 L173.0,34.999 L173.0,42.999 L173.0,43.999 L173.0,44.999 L163.0,44.999 ZM171.0,2.0 L163.0,2.0 L163.0,0.0 L173.0,0.0 L173.0,0.999 L173.0,2.0 L173.0,9.999 L171.0,9.999 L171.0,2.0 ZM0.0,43.999 L0.0,42.999 L0.0,34.999 L2.0,34.999 L2.0,42.999 L10.0,42.999 L10.0,44.999 L0.0,44.999 L0.0,43.999 ZM2.0,9.999 L0.0,9.999 L0.0,2.0 L0.0,0.999 L0.0,0.0 L10.0,0.0 L10.0,2.0 L2.0,2.0 L2.0,9.999 Z"/>
<text kerning="auto" font-family="Myriad Pro" fill="#ffffff" font-size="26px" x="12px" y="33px"><tspan font-size="22px" font-family="Raleway" fill="#ffffff">DARIA`S</tspan><tspan font-size="22px" font-family="Raleway" font-weight="bold" fill="#3C3C3C"> BLOG</tspan></text>
</svg>